<?xml version="1.0" standalone="no"?>
<!DOCTYPE svg PUBLIC "-//W3C//DTD SVG 20010904//EN"
 "http://www.w3.org/TR/2001/REC-SVG-20010904/DTD/svg10.dtd">
<svg version="1.0" xmlns="http://www.w3.org/2000/svg"
 width="1000.000000pt" height="1000.000000pt" viewBox="0 0 1000.000000 1000.000000"
 preserveAspectRatio="xMidYMid meet">
<metadata>
Created by potrace 1.14, written by Peter Selinger 2001-2017
</metadata>
<g transform="translate(0.000000,1000.000000) scale(0.100000,-0.100000)"
fill="#000000" stroke="none">
<path d="M3128 8456 c-31 -17 -52 -21 -115 -19 -43 1 -251 5 -463 8 -212 3
-504 7 -650 10 -165 2 -282 0 -310 -7 -25 -6 -153 -63 -285 -128 -251 -123
-301 -157 -356 -245 -35 -54 -59 -129 -63 -197 -6 -104 24 -180 169 -428 19
-33 195 -343 227 -400 14 -25 112 -195 217 -379 105 -184 191 -338 191 -342 0
-5 4 -9 8 -9 4 0 13 -12 19 -27 7 -16 25 -50 41 -78 29 -50 435 -758 484 -845
81 -143 209 -367 218 -380 6 -8 13 -22 17 -30 8 -17 138 -246 153 -270 5 -8
31 -53 57 -99 26 -47 63 -110 80 -140 18 -31 36 -62 40 -70 3 -7 27 -50 53
-95 26 -44 73 -126 104 -181 31 -55 62 -109 68 -120 120 -208 317 -553 341
-595 17 -30 50 -88 74 -128 24 -41 43 -76 43 -78 0 -2 11 -21 23 -42 13 -20
35 -57 49 -82 32 -57 35 -63 208 -365 78 -137 154 -270 168 -295 14 -25 33
-58 43 -75 10 -16 33 -57 52 -90 53 -95 84 -150 179 -313 48 -85 88 -156 88
-158 0 -3 69 -121 90 -154 6 -8 15 -25 20 -38 20 -46 118 -132 187 -164 56
-27 81 -32 154 -35 118 -4 112 -6 494 184 175 87 218 126 292 259 26 47 128
223 164 282 9 15 25 43 36 62 11 19 40 69 65 110 24 41 47 82 51 90 4 8 16 29
27 45 11 17 25 41 31 55 6 14 16 32 23 40 8 8 25 35 38 60 14 25 150 259 303
520 153 261 286 489 295 505 9 17 54 92 99 169 44 76 81 140 81 141 0 2 18 32
39 66 22 35 52 87 67 114 14 28 32 57 40 66 8 8 14 18 14 21 0 6 84 154 97
170 6 7 24 38 41 68 17 31 124 215 238 410 114 195 228 391 254 435 26 44 86
148 135 230 48 83 95 164 105 180 25 45 147 253 225 385 76 128 97 165 133
230 14 25 36 63 51 85 14 22 33 54 41 70 8 17 22 41 31 55 9 14 26 41 36 60
41 71 193 335 203 350 5 8 44 74 86 145 71 119 98 166 137 235 33 58 231 397
246 420 66 104 87 216 60 325 -5 22 -12 48 -14 58 -7 32 -55 106 -90 141 -36
36 -125 101 -125 91 0 -3 -11 2 -25 11 -14 9 -25 14 -25 10 0 -3 -12 -1 -27 5
-28 10 -74 12 -653 24 -506 11 -622 13 -713 14 -83 1 -87 2 -77 20 5 11 10 21
10 23 0 5 -376 10 -841 12 -348 1 -429 -2 -442 -13 -10 -7 -17 -11 -17 -8 0 3
-126 -57 -280 -134 -154 -76 -282 -139 -285 -139 -15 0 -131 -77 -160 -107
-19 -19 -73 -91 -121 -159 -47 -68 -89 -126 -93 -129 -4 -2 -28 26 -52 62 -24
37 -51 77 -59 90 -8 12 -39 57 -69 100 -30 43 -83 121 -119 173 -95 140 -150
203 -211 239 -95 56 -125 60 -565 67 -853 13 -807 13 -848 -10z"/>
</g>
</svg>
